<?xml version="1.0" encoding="utf-8"?>
<!-- Generator: Adobe Illustrator 16.0.0, SVG Export Plug-In . SVG Version: 6.00 Build 0)  -->
<!DOCTYPE svg PUBLIC "-//W3C//DTD SVG 1.1//EN" "http://www.w3.org/Graphics/SVG/1.1/DTD/svg11.dtd">
<svg version="1.1" id="Layer_1" xmlns="http://www.w3.org/2000/svg" xmlns:xlink="http://www.w3.org/1999/xlink" x="0px" y="0px"
	 width="125px" height="48px" viewBox="0 0 125 48" enable-background="new 0 0 125 48" xml:space="preserve">
<path fill-rule="evenodd" clip-rule="evenodd" fill="#FAFAFA" d="M117.9,7.35c4.6,4.566,6.899,10.117,6.899,16.65
	c0,6.5-2.3,12.05-6.899,16.65c-4.534,4.466-9.95,6.767-16.25,6.899c-0.134,0-0.267,0-0.4,0h-77.5c-0.167,0-0.317,0-0.45,0
	c-6.333-0.133-11.75-2.434-16.25-6.899C2.483,36.05,0.2,30.5,0.2,24c0-6.533,2.283-12.083,6.85-16.65c4.5-4.5,9.917-6.8,16.25-6.9
	c0.133,0,0.284,0,0.45,0h77.5c0.134,0,0.267,0,0.4,0C107.95,0.55,113.366,2.85,117.9,7.35z M33.7,20.6h-1.55v10.25h1.55V20.6z
	 M32.3,17c-0.2,0.167-0.3,0.433-0.3,0.8c0,0.333,0.1,0.6,0.3,0.8c0.167,0.167,0.383,0.25,0.65,0.25c0.233,0,0.45-0.083,0.65-0.25
	c0.167-0.2,0.25-0.467,0.25-0.8c0-0.367-0.083-0.633-0.25-0.8c-0.2-0.167-0.417-0.25-0.65-0.25C32.683,16.75,32.467,16.833,32.3,17z
	 M28.35,16.25H26.8v14.6h1.55V16.25z M46.1,24.15c0-1.3-0.317-2.25-0.95-2.85c-0.633-0.6-1.566-0.9-2.8-0.9
	c-0.7,0-1.333,0.133-1.9,0.4c-0.6,0.267-1.05,0.667-1.35,1.2H39l-0.25-1.4H37.5v10.25h1.55V25.45c0-1.333,0.25-2.284,0.75-2.85
	c0.5-0.6,1.284-0.9,2.35-0.9c0.833,0,1.434,0.216,1.8,0.65c0.4,0.4,0.6,1.017,0.6,1.85v6.649h1.55V24.15z M51.35,16.25H49.8v14.6
	h1.55V27l1.15-1l3.65,4.85H58l-4.45-5.899l4.2-4.35H55.9l-3.35,3.5c-0.533,0.6-0.933,1.1-1.2,1.5h-0.1
	c0.067-0.733,0.1-1.266,0.1-1.6V16.25z M73,22.75c0.5-0.7,1.2-1.05,2.1-1.05c1.067,0,1.851,0.316,2.351,0.95
	c0.467,0.6,0.7,1.633,0.7,3.1v0.3c0,1.3-0.233,2.233-0.7,2.8c-0.467,0.601-1.233,0.9-2.3,0.9c-0.934,0-1.65-0.333-2.15-1
	c-0.467-0.667-0.7-1.667-0.7-3C72.3,24.45,72.533,23.45,73,22.75z M78.25,21.9h-0.1c-0.733-1-1.801-1.5-3.2-1.5
	c-1.334,0-2.384,0.467-3.15,1.4c-0.733,0.934-1.1,2.25-1.1,3.95s0.366,3,1.1,3.9c0.733,0.933,1.783,1.399,3.15,1.399
	c1.434,0,2.5-0.533,3.2-1.6h0.1l0.2,1.399h1.25v-14.6h-1.55L78.25,21.9z M63.9,21.7c0.833,0,1.466,0.267,1.899,0.8
	c0.434,0.5,0.65,1.25,0.65,2.25H61.1c0.066-0.967,0.35-1.717,0.85-2.25S63.1,21.7,63.9,21.7z M67,21.65
	c-0.767-0.833-1.783-1.25-3.05-1.25c-1.367,0-2.467,0.483-3.3,1.45c-0.8,0.967-1.2,2.283-1.2,3.95c0,1.634,0.433,2.917,1.3,3.851
	c0.867,0.933,2.066,1.399,3.6,1.399c0.7,0,1.284-0.05,1.75-0.149c0.5-0.101,1.034-0.284,1.601-0.551V29
	c-1.101,0.467-2.2,0.7-3.3,0.7c-1.067,0-1.884-0.316-2.45-0.95c-0.567-0.634-0.867-1.55-0.9-2.75h7.05v-1
	C68.1,23.633,67.733,22.517,67,21.65z M90.35,22l-0.25-1.4h-1.25v10.25H90.4V25.45c0-1.333,0.25-2.284,0.75-2.85
	c0.5-0.6,1.283-0.9,2.35-0.9c0.833,0,1.434,0.216,1.8,0.65c0.4,0.4,0.601,1.017,0.601,1.85v6.649h1.55v-6.7
	c0-1.3-0.316-2.25-0.95-2.85c-0.634-0.6-1.566-0.9-2.8-0.9c-0.7,0-1.334,0.133-1.9,0.4c-0.6,0.267-1.05,0.667-1.35,1.2H90.35z
	 M85.05,20.6H83.5v10.25h1.55V20.6z M85.2,17.8c0-0.367-0.084-0.633-0.25-0.8c-0.2-0.167-0.417-0.25-0.65-0.25
	c-0.267,0-0.483,0.083-0.649,0.25c-0.2,0.167-0.301,0.433-0.301,0.8c0,0.333,0.101,0.6,0.301,0.8c0.166,0.167,0.383,0.25,0.649,0.25
	c0.233,0,0.45-0.083,0.65-0.25C85.116,18.4,85.2,18.133,85.2,17.8z"/>
</svg>
