<?xml version="1.0" encoding="utf-8"?>
<!-- Generator: Adobe Illustrator 16.0.0, SVG Export Plug-In . SVG Version: 6.00 Build 0)  -->
<!DOCTYPE svg PUBLIC "-//W3C//DTD SVG 1.1//EN" "http://www.w3.org/Graphics/SVG/1.1/DTD/svg11.dtd">
<svg version="1.1" xmlns="http://www.w3.org/2000/svg" xmlns:xlink="http://www.w3.org/1999/xlink" x="0px" y="0px" width="1016px"
	 height="660px" viewBox="0 0 1016 660" enable-background="new 0 0 1016 660" xml:space="preserve">
<g id="Laptop_back">
	<path fill-rule="evenodd" clip-rule="evenodd" fill="#999999" d="M109.45,402.1l-0.05,29.65l-1.2,88.95h798.05L904.3,46.15H110.15
		C109.917,164.783,109.683,283.433,109.45,402.1z M83.75,38.95c0.067-5.067,0.3-8.7,0.7-10.9c0.966-5.233,3.483-10.483,7.55-15.75
		C98.167,4.533,108.9,0.767,124.2,1h766.05c15.3-0.233,26.033,3.533,32.2,11.3c4.066,5.267,6.583,10.517,7.55,15.75
		c0.4,2.2,0.634,5.833,0.7,10.9l3.3,515.5c0,4.934-0.767,8.6-2.3,11H82.75c-1.533-2.4-2.3-6.066-2.3-11L83.75,38.95z"/>
</g>
<g id="Screen_back">
	<path fill-rule="evenodd" clip-rule="evenodd" d="M927.85,42.3l3,511.8c-0.133,5.034-0.916,8.567-2.35,10.601
		c-6.667-0.9-34.233-1.45-82.7-1.65c-0.899,0-1.816,0-2.75,0h-1.6c-3.467,0-6.934,0-10.4,0c-2.233,0-4.5,0-6.8,0
		c-110.634,0-222.85,0-336.65,0c-65.833,0-132.184,0-199.05,0c-32.8,0-65.583,0-98.35,0c-1.434,0-2.85,0-4.25,0h-4.25
		c-0.267,0-0.534,0-0.8,0c-3.267,0-6.433,0-9.5,0c-50.167,0.2-78.65,0.75-85.45,1.65c-1.434-2.033-2.217-5.566-2.35-10.601l3-511.8
		C85.633,18.1,97.017,5.633,120.75,4.9H893.7C917.434,5.633,928.816,18.1,927.85,42.3z M906.25,520.7L904.3,46.15H110.15
		c-0.233,118.633-0.467,237.283-0.7,355.95l-0.05,29.65l-1.2,88.95H906.25z"/>
</g>
<g id="Camera">
	<path fill-rule="evenodd" clip-rule="evenodd" fill="#333333" d="M513.7,26.5c0,1.767-0.617,3.283-1.851,4.55
		c-1.267,1.267-2.783,1.9-4.55,1.9c-1.767-0.034-3.267-0.667-4.5-1.9c-1.233-1.267-1.85-2.783-1.85-4.55s0.617-3.283,1.85-4.55
		c1.233-1.233,2.733-1.867,4.5-1.9c1.767,0,3.283,0.633,4.55,1.9C513.083,23.217,513.7,24.733,513.7,26.5z"/>
</g>
<g id="Laptop_bottom">
	<path fill-rule="evenodd" clip-rule="evenodd" fill="#999999" d="M831.1,563.05c3.467,0,6.934,0,10.4,0h1.6c0.934,0,1.851,0,2.75,0
		c48.467,0.2,76.034,0.75,82.7,1.65c1.101,0.166,2.167,0.416,3.2,0.75c1.134,0.333,2.233,0.75,3.3,1.25
		c0.8,0.366,1.584,0.783,2.351,1.25l74.649,61.1c0.634,0.533,1.05,1.066,1.25,1.601c0.134,0.333,0.2,0.666,0.2,1l0.05,10.949
		c-0.467,8.7-5.5,13-15.1,12.9l-510.8,2.85L16.1,655.5c-9.6,0.1-14.633-4.2-15.1-12.9l0.05-10.949c0-0.334,0.067-0.667,0.2-1
		c0.2-0.534,0.617-1.067,1.25-1.601l74.65-61.1c0.767-0.467,1.55-0.884,2.35-1.25c1.067-0.5,2.167-0.917,3.3-1.25
		c1.034-0.334,2.1-0.584,3.2-0.75c6.8-0.9,35.283-1.45,85.45-1.65c3.066,0,6.233,0,9.5,0c0.267,0,0.533,0,0.8,0H186
		c1.4,0,2.817,0,4.25,0c32.767,0,65.55,0,98.35,0c66.867,0,133.217,0,199.05,0c113.8,0,226.017,0,336.65,0
		C826.6,563.05,828.866,563.05,831.1,563.05z"/>
</g>
<g id="Laptop_handle">
	<path fill-rule="evenodd" clip-rule="evenodd" fill="#AEAEAE" d="M442.25,650c-4.133-0.3-6.7-1.55-7.7-3.75
		c-0.933-2.2-1.517-5.366-1.75-9.5H581.65c-0.233,4.134-0.817,7.3-1.75,9.5c-1,2.2-3.567,3.45-7.7,3.75H442.25z"/>
</g>
<g id="Laptop_cover">
	<path fill-rule="evenodd" clip-rule="evenodd" fill="#CCCCCC" d="M841.45,563.05h1.6c0.934,0,1.851,0,2.75,0
		c48.467,0.2,76.033,0.75,82.7,1.65c1.1,0.166,2.167,0.416,3.2,0.75c1.133,0.333,2.233,0.75,3.3,1.25
		c0.8,0.366,1.583,0.783,2.35,1.25l74.65,61.1c0.634,0.533,1.05,1.066,1.25,1.601c0.134,0.333,0.2,0.666,0.2,1
		c-0.033,0.566-0.283,1.183-0.75,1.85c-1.101,1.1-3.101,1.75-6,1.95l-39.45,0.75l-479.65,0.45L47.2,636.2l-39.45-0.75
		c-2.9-0.2-4.9-0.851-6-1.95c-0.467-0.667-0.717-1.283-0.75-1.85c0-0.334,0.067-0.667,0.2-1c0.2-0.534,0.617-1.067,1.25-1.601
		l74.65-61.1c0.767-0.467,1.55-0.884,2.35-1.25c1.066-0.5,2.167-0.917,3.3-1.25c1.033-0.334,2.1-0.584,3.2-0.75
		c6.8-0.9,35.283-1.45,85.45-1.65c3.067,0,6.233,0,9.5,0c0.267,0,0.533,0,0.8,0h4.25c1.4,0,2.816,0,4.25,0c32.767,0,65.55,0,98.35,0
		c66.867,0,133.217,0,199.05,0c113.8,0,226.016,0,336.65,0c2.3,0,4.566,0,6.8,0C834.517,563.05,837.983,563.05,841.45,563.05z"/>
</g>
<g id="Mousepad">
	<path fill-rule="evenodd" clip-rule="evenodd" fill="#999999" d="M685.35,630.2H328.45l12.05-22.65
		c0.633-0.934,2.1-1.566,4.4-1.899c0.9-0.101,2.2-0.184,3.9-0.25l9.35-0.15c0.633,0,1.3,0,2,0c0.2,0,0.417,0,0.65,0l126.8-0.3
		l166.05,0.3c0.066,0,0.133,0,0.199,0c0.067,0,0.134,0,0.2,0c5.4-0.033,9.417,0.033,12.05,0.2c1.167,0.033,2.101,0.1,2.801,0.2
		c2.3,0.333,3.767,0.966,4.399,1.899L685.35,630.2z"/>
</g>
<g id="Keyboard_back">
	<path fill-rule="evenodd" clip-rule="evenodd" fill="#999999" d="M895.05,569.4l35.55,33.05l-443-0.7l-403.75,0.7l35.55-33.05
		c1.033-0.634,2.617-0.95,4.75-0.95H890.3C892.434,568.45,894.017,568.767,895.05,569.4z"/>
</g>
<g id="Keys">
	<path fill-rule="evenodd" clip-rule="evenodd" d="M826.45,582.2l-2.75-4.4h67.7l4.5,4.4H826.45z M818.4,587.1l-2.2-3.85h80.75
		l4,3.85H818.4z M837.35,576.75H794.5l-1.95-4.55h41.2L837.35,576.75z M844.8,572.2h40.9l4.649,4.55H847.9L844.8,572.2z
		 M840.75,571.45l-2.1-3h43.25l3.05,3H840.75z M830.3,571.45h-44.45l-1.35-3h43.55L830.3,571.45z M901.95,588.15l5.149,5H795.6
		l-2.25-5H901.95z M654,582.2h-43.45l-0.649-4.4h43.149L654,582.2z M654.2,583.25h42.75l1.05,3.9h-43L654.2,583.25z M663.9,577.8
		H706.8l1.25,4.4h-43.2L663.9,577.8z M673.05,588.15l1.25,5h-43.55l-1.05-5H673.05z M677,576.75h-42.45l-0.95-4.55h42.351
		L677,576.75z M686.9,572.2H729.3l1.55,4.55H688.15L686.9,572.2z M686.05,593.15l-1.35-5h42.85l1.65,5H686.05z M666.8,571.45h-43.75
		l-0.45-3h43.5L666.8,571.45z M676.6,568.45H720.9l1.05,3H677.35L676.6,568.45z M708.4,583.25H751.3l1.4,3.9h-43.15L708.4,583.25z
		 M717.15,577.8h43.25l1.55,4.4H718.6L717.15,577.8z M741.6,593.15l-1.8-5H782.4l2.35,5H741.6z M737.8,572.2h44.3l2.2,4.55h-44.85
		L737.8,572.2z M762.35,583.25H804.9l2.199,3.9h-43.35L762.35,583.25z M730.9,568.45H775l1.35,3H731.95L730.9,568.45z M771.15,577.8
		h30.75l2.449,4.4H773.15L771.15,577.8z M745.95,594.6l2,5.551H691.35l-1.5-5.551H745.95z M801.15,594.6l2.55,5.551h-42.95
		l-1.95-5.551H801.15z M678.65,600.15H335.8l1.35-5.551H677.3L678.65,600.15z M169.65,572.2l-3.1,4.55H124.1l4.65-4.55H169.65z
		 M177.1,576.75l3.6-4.55h41.2l-1.95,4.55H177.1z M855.65,594.6l4,5.551H816l-3.2-5.551H855.65z M908.55,594.6l5.65,5.551h-41.45
		l-4.4-5.551H908.55z M196.05,587.1H113.5l4-3.85h80.75L196.05,587.1z M188,582.2h-69.45l4.5-4.4h67.7L188,582.2z M184.15,571.45
		l2.25-3h43.55l-1.35,3H184.15z M173.75,571.45H129.5l3.05-3h43.25L173.75,571.45z M210.15,582.2l2.4-4.4h30.75l-2,4.4H210.15z
		 M218.85,593.15h-111.5l5.15-5h108.6L218.85,593.15z M207.35,587.15l2.2-3.9h96.5l-1.15,3.9H207.35z M232.05,588.15h42.6l-1.8,5
		H229.7L232.05,588.15z M283.6,576.75l1.55-4.55h42.4l-1.25,4.55H283.6z M252.5,582.2l1.55-4.4h43.25l-1.45,4.4H252.5z
		 M238.1,571.45l1.35-3h44.1l-1.05,3H238.1z M230.15,576.75l2.2-4.55h44.3l-1.65,4.55H230.15z M286.9,588.15h42.85l-1.35,5h-43.15
		L286.9,588.15z M292.5,571.45l1.05-3h44.3l-0.75,3H292.5z M316.45,587.15l1.05-3.9h42.75l-0.8,3.9H316.45z M306.4,582.2l1.25-4.4
		h42.9l-0.95,4.4H306.4z M158.8,594.6h42.85l-3.2,5.551H154.8L158.8,594.6z M141.7,600.15h-41.45l5.65-5.551h40.2L141.7,600.15z
		 M253.7,600.15h-42.95l2.55-5.551h42.35L253.7,600.15z M268.5,594.6h56.1l-1.5,5.551h-56.6L268.5,594.6z M511.2,568.45h45.55
		l0.25,3h-45.8V568.45z M512.85,577.8l0.101,4.4h-45l0.4-4.4H512.85z M503.25,568.45v3h-45.8l0.25-3H503.25z M521.6,577.8h24.5
		l0.4,4.4h-24.75L521.6,577.8z M534.45,583.25l0.25,3.9h-54.95l0.25-3.9H534.45z M545.15,583.25h43.699l0.601,3.9h-44L545.15,583.25
		z M562.15,577.8h36.699l0.75,4.4h-36.85L562.15,577.8z M564.2,593.15H450.25l0.65-5h112.65L564.2,593.15z M567.8,568.45h43.75
		l0.55,3h-44L567.8,568.45z M572.95,572.2l0.6,4.55H440.9l0.6-4.55H572.95z M575.6,593.15l-0.649-5h43.5l0.85,5H575.6z
		 M580.65,572.2h43.199l0.801,4.55H581.35L580.65,572.2z M599.75,583.25H643l0.8,3.9H600.4L599.75,583.25z M341.4,588.15h43.35
		l-1.05,5h-43.55L341.4,588.15z M389.8,576.75l0.8-4.55h43.2l-0.7,4.55H389.8z M402.35,571.45l0.55-3h43.75l-0.3,3H402.35z
		 M347.65,571.45l0.7-3h43.5l-0.45,3H347.65z M360.45,582.2l0.95-4.4h43.15l-0.65,4.4H360.45z M337.45,576.75l1.05-4.55h42.35
		l-0.95,4.55H337.45z M396,588.15h43.5l-0.65,5h-43.7L396,588.15z M425,587.15l0.6-3.9h43.7l-0.3,3.9H425z M414.85,582.2l0.75-4.4
		h36.7l-0.6,4.4H414.85z M370.65,587.15l0.8-3.9h43.25l-0.65,3.9H370.65z"/>
</g>
</svg>
