<?xml version="1.0" encoding="utf-8"?>
<!-- Generator: Adobe Illustrator 16.0.0, SVG Export Plug-In . SVG Version: 6.00 Build 0)  -->
<!DOCTYPE svg PUBLIC "-//W3C//DTD SVG 1.1//EN" "http://www.w3.org/Graphics/SVG/1.1/DTD/svg11.dtd">
<svg version="1.1" id="Layer_1" xmlns="http://www.w3.org/2000/svg" xmlns:xlink="http://www.w3.org/1999/xlink" x="0px" y="0px"
	 width="594px" height="925px" viewBox="0 0 594 925" enable-background="new 0 0 594 925" xml:space="preserve">
<path fill-rule="evenodd" clip-rule="evenodd" fill="#1F1F1F" d="M590.9,44.25c0.199,0.733,0.399,1.467,0.6,2.2l1.95,16.15
	c0,1.333-0.033,2.65-0.101,3.95v792c0.067,1.267,0.101,2.566,0.101,3.9L591.5,878.6c-0.2,0.767-0.4,1.5-0.6,2.2
	c-2.867,9.434-8.067,17.934-15.601,25.5c-12.1,12.066-26.7,18.101-43.8,18.101c-1.333,0-2.616-0.034-3.85-0.101H66.45
	c-1.267,0.066-2.567,0.101-3.9,0.101c-17.1,0-31.683-6.034-43.75-18.101c-7.566-7.566-12.767-16.066-15.6-25.5
	c-0.233-0.7-0.434-1.434-0.6-2.2l-2-16.149c0-1.334,0.033-2.634,0.1-3.9V66.5c-0.067-1.3-0.1-2.6-0.1-3.9c0-0.267,0-0.55,0-0.85
	c0-0.1,0-0.2,0-0.3c0-0.133,0-0.233,0-0.3c0-0.1,0-0.183,0-0.25c0-0.1,0-0.183,0-0.25c0-0.1,0-0.183,0-0.25
	c0.3-8.1,1.967-15.617,5-22.55c0.233-0.667,0.517-1.317,0.85-1.95l4.7-8.05c2.2-3.167,4.733-6.184,7.6-9.05
	c12.1-12.1,26.7-18.15,43.8-18.15c1.333,0,2.65,0.033,3.95,0.1h461.15c1.233-0.067,2.517-0.1,3.85-0.1c17.1,0,31.7,6.05,43.8,18.15
	C582.833,26.333,588.033,34.817,590.9,44.25z M565.9,108.5H28.25v716.75H565.9V108.5z"/>
</svg>
