<?xml version="1.0" encoding="utf-8"?>
<!-- Generator: Adobe Illustrator 16.0.0, SVG Export Plug-In . SVG Version: 6.00 Build 0)  -->
<!DOCTYPE svg PUBLIC "-//W3C//DTD SVG 1.1//EN" "http://www.w3.org/Graphics/SVG/1.1/DTD/svg11.dtd">
<svg version="1.1" id="Layer_1" xmlns="http://www.w3.org/2000/svg" xmlns:xlink="http://www.w3.org/1999/xlink" x="0px" y="0px"
	 width="1023px" height="445px" viewBox="0 0 1023 445" enable-background="new 0 0 1023 445" xml:space="preserve">
<path fill-rule="evenodd" clip-rule="evenodd" fill="#FAFAFA" d="M1021.1,9.25H952.4V63.8h64.899v9.3H952.4v61.85h68.699v9.25h-78.8
	V0h78.8V9.25z M858.35,16.55c-6.566-5-17.283-7.5-32.149-7.5H802.35V72.7h27.5c12.167,0,21.601-2.7,28.301-8.1
	c6.699-5.467,10.05-13.483,10.05-24.05C868.2,29.55,864.917,21.55,858.35,16.55z M879.05,39.75c0,9.667-2.533,17.817-7.6,24.45
	c-5.101,6.633-12.851,11.4-23.25,14.3l39.149,65.7H875.3L838.15,81.35H802.35v62.85h-10.1V0h34.35c17.867,0,31.084,3.317,39.65,9.95
	C874.783,16.517,879.05,26.45,879.05,39.75z M729.6,9.25H660.9V63.8H725.8v9.3H660.9v61.85H729.6v9.25h-78.8V0h78.8V9.25z M579.95,0
	v144.2H569.8V73.3h-84.2v70.9h-10.1V0h10.1v64h84.2V0H579.95z M424.1,9.45h-46.85V144.2H367.1V9.45h-46.85V0H424.1V9.45z M186.4,0
	v144.2h-10.1V0H186.4z M309.2,171.05v164.2h-40.8v-72c0-2.2,0.167-8.116,0.5-17.75c0.4-10.7,0.8-20.134,1.2-28.3h-1l-33.15,118.05
	h-42.2L160.15,217h-1c0.294,3.782,0.561,7.407,0.8,10.875c1.033,14.981,1.55,27.006,1.55,36.075v71.3h-39.3v-164.2h59.05
	L215.5,287.65h0.9L250,171.05H309.2z M105.45,0v144.2H95.3V73.3H11.1v70.9H1V0h10.1v64h84.2V0H105.45z M44.6,171.05v164.2H0v-164.2
	H44.6z M103.35,171.05l-4.6,59.3H68l-4.6-59.3H103.35z M312.35,401.1l-4.4,20.801l20.5-20.801h6.1l-18.7,18.7l10.25,24.15h-5.45
	c-1.4-3.533-2.833-7.033-4.3-10.5c-1.467-3.5-2.9-7.033-4.3-10.601l-5.1,3.801l-3.65,17.3h-5l9.05-42.851H312.35z M295.95,401.1
	l-9.1,42.851h-4.95l9.15-42.851H295.95z M253.45,443.95l9.05-42.851h5l-8.1,38.351h16.55l-0.95,4.5H253.45z M221.45,443.95
	l9.15-42.851h4.9l-9.1,42.851H221.45z M588.85,407.4c-1.5-0.667-3.116-1.233-4.85-1.7c-1.733-0.5-3.634-0.75-5.7-0.75
	c-3.3,0-6.3,1-9,3c-2.7,1.967-4.8,4.733-6.3,8.3c-1.5,3.533-2.25,7.5-2.25,11.9c0,3.733,1,6.649,3,8.75
	c2,2.133,4.783,3.199,8.35,3.199c3.034,0,5.584-0.383,7.65-1.149l2.8-13h-8.45l0.95-4.45h13.45l-4.5,20.85
	c-4.233,1.467-8.333,2.2-12.3,2.2c-5.134,0-9.134-1.416-12-4.25c-2.867-2.833-4.3-6.767-4.3-11.8c0-5.267,1-10.05,3-14.35
	c1.966-4.301,4.699-7.65,8.199-10.051c3.534-2.399,7.434-3.6,11.7-3.6c2.3,0,4.45,0.2,6.45,0.6c2,0.367,4.017,0.983,6.05,1.851
	L588.85,407.4z M536.9,443.95L523.45,408.1h-0.2c-0.6,4.334-1.316,8.417-2.15,12.25l-5.05,23.601h-4.75l9.05-42.851h5.301
	l13.449,35.75h0.15c0.6-4.366,1.3-8.316,2.1-11.85l5.101-23.9h4.8l-9.05,42.851H536.9z M497.75,401.1l-18.7,18.7l10.25,24.15h-5.45
	c-1.4-3.533-2.833-7.033-4.3-10.5c-1.466-3.5-2.9-7.033-4.3-10.601l-5.1,3.801l-3.65,17.3h-5l9.05-42.851h5l-4.4,20.801l20.5-20.801
	H497.75z M494.95,443.95l9.15-42.851h4.9l-9.1,42.851H494.95z M450.8,401.1l5.35,42.851h-4.95l-1.7-13.601H435l-7.2,13.601h-5.55
	L445.7,401.1H450.8z M447.1,406.75c-0.7,1.7-1.483,3.4-2.35,5.1c-0.833,1.7-3.267,6.334-7.3,13.9H449l-1.05-8.75
	C447.483,413.5,447.2,410.083,447.1,406.75z M420.3,405.9h-0.15l-21,38.05h-3.85L390.45,406h-0.25c-0.133,1.4-0.4,3.333-0.8,5.8
	c-0.433,2.434-0.816,4.367-1.15,5.8l-5.55,26.351h-4.75L387,401.1h7.15l4.4,35.301h0.25l19.3-35.301h7.8L417,443.95h-5.1
	c2.467-11.533,4.35-20.367,5.65-26.5C418.883,411.283,419.8,407.434,420.3,405.9z M361.4,405.6h-16.55l-2.9,13.75h15.45l-0.85,4.45
	h-15.5l-3.35,15.7h16.55l-0.95,4.45h-21.55l9.05-42.851h21.55L361.4,405.6z"/>
</svg>
