<?xml version="1.0" encoding="utf-8"?>
<!-- Generator: Adobe Illustrator 16.0.0, SVG Export Plug-In . SVG Version: 6.00 Build 0)  -->
<!DOCTYPE svg PUBLIC "-//W3C//DTD SVG 1.1//EN" "http://www.w3.org/Graphics/SVG/1.1/DTD/svg11.dtd">
<svg version="1.1" id="Primary_text" xmlns="http://www.w3.org/2000/svg" xmlns:xlink="http://www.w3.org/1999/xlink" x="0px"
	 y="0px" width="1023px" height="445px" viewBox="0 0 1023 445" enable-background="new 0 0 1023 445" xml:space="preserve">
<path fill-rule="evenodd" clip-rule="evenodd" fill="#FAFAFA" d="M1020.35,170.9v164.2H975.8V268.15h-51.55V335.1h-44.6V170.9h44.6
	v60.9h51.55v-60.9H1020.35z M795.55,217.75c-2.399-9.5-3.967-16.317-4.7-20.45c-0.666,3.833-1.983,10.117-3.949,18.85
	c-2,8.767-6.417,26.034-13.25,51.8H808.6L801.5,241C799.866,235,797.884,227.25,795.55,217.75z M665.85,252.8
	c0-16.399-2.733-28.5-8.199-36.3c-5.534-7.867-13.767-11.8-24.7-11.8c-22.233,0-33.351,16.033-33.351,48.1
	c0,31.733,11.051,47.601,33.15,47.601c11.2,0,19.533-3.851,25-11.551C663.15,281.116,665.85,269.1,665.85,252.8z M756.15,335.1
	H707.4l53.55-164.85h59.2L874.4,335.1h-48.5l-8.101-30.75h-53.35L756.15,335.1z M692.25,315.8c-13.566,14.367-33.4,21.55-59.5,21.55
	c-25.767,0-45.5-7.233-59.2-21.699c-13.767-14.434-20.649-35.467-20.649-63.101c0-27.333,6.85-48.183,20.55-62.55
	c13.6-14.433,33.434-21.65,59.5-21.65c26.133,0,45.934,7.15,59.399,21.45c13.5,14.3,20.25,35.3,20.25,63
	C712.6,280.4,705.816,301.4,692.25,315.8z M535.95,170.9v164.2H477.8L417.85,219.45h-1.05c1.434,18.166,2.15,32.05,2.15,41.649v74
	h-39.3V170.9h57.95L497.35,285H498c-1.033-16.533-1.55-29.816-1.55-39.85V170.9H535.95z"/>
</svg>
