<?xml version="1.0" encoding="utf-8"?>
<!-- Generator: Adobe Illustrator 16.0.0, SVG Export Plug-In . SVG Version: 6.00 Build 0)  -->
<!DOCTYPE svg PUBLIC "-//W3C//DTD SVG 1.1//EN" "http://www.w3.org/Graphics/SVG/1.1/DTD/svg11.dtd">
<svg version="1.1" id="Layer_1" xmlns="http://www.w3.org/2000/svg" xmlns:xlink="http://www.w3.org/1999/xlink" x="0px" y="0px"
	 width="1023px" height="445px" viewBox="0 0 1023 445" enable-background="new 0 0 1023 445" xml:space="preserve">
<path fill-rule="evenodd" clip-rule="evenodd" fill="#FAFAFA" d="M1020.25,171.05v164.2H975.7V268.3h-51.55v66.95H879.55v-164.2
	h44.601v60.9h51.55v-60.9H1020.25z M795.45,217.9c-2.4-9.5-3.967-16.316-4.7-20.45c-0.667,3.833-1.983,10.117-3.95,18.85
	c-2,8.767-6.416,26.033-13.25,51.8h34.95l-7.1-26.949C799.767,235.15,797.783,227.4,795.45,217.9z M665.75,252.95
	c0-16.4-2.733-28.5-8.2-36.3c-5.533-7.867-13.767-11.8-24.7-11.8c-22.233,0-33.35,16.033-33.35,48.1c0,31.733,11.05,47.6,33.15,47.6
	c11.199,0,19.533-3.85,25-11.55C663.05,281.267,665.75,269.25,665.75,252.95z M756.05,335.25H707.3l53.55-164.85h59.2l54.25,164.85
	h-48.5l-8.1-30.75H764.35L756.05,335.25z M692.15,315.95c-13.567,14.366-33.4,21.55-59.5,21.55c-25.767,0-45.5-7.233-59.2-21.7
	c-13.767-14.434-20.65-35.467-20.65-63.1c0-27.334,6.851-48.184,20.55-62.55c13.601-14.433,33.434-21.65,59.5-21.65
	c26.134,0,45.934,7.15,59.4,21.45c13.5,14.3,20.25,35.3,20.25,63C712.5,280.55,705.717,301.55,692.15,315.95z M794.9,420.3
	c2.899,1.7,4.85,3.033,5.85,4c1,1,1.767,2.101,2.3,3.3c0.5,1.167,0.75,2.534,0.75,4.101c0,4.1-1.366,7.3-4.1,9.6
	c-2.767,2.267-6.634,3.4-11.601,3.4c-2.066,0-3.883-0.134-5.449-0.4c-1.601-0.3-3.084-0.783-4.45-1.45v-5
	c3.166,1.634,6.483,2.45,9.95,2.45c3.166,0,5.683-0.733,7.55-2.2c1.833-1.466,2.75-3.483,2.75-6.05c0-1.533-0.5-2.883-1.5-4.05
	c-1.033-1.167-2.95-2.533-5.75-4.1c-2.934-1.667-4.967-3.334-6.101-5c-1.166-1.667-1.75-3.634-1.75-5.9c0-3.634,1.284-6.6,3.851-8.9
	c2.6-2.3,6-3.449,10.2-3.449c1.933,0,3.733,0.183,5.399,0.55c1.667,0.366,3.434,1,5.3,1.899l-1.949,4.4
	c-1.301-0.733-2.75-1.316-4.351-1.75c-1.6-0.434-3.066-0.65-4.399-0.65c-2.634,0-4.733,0.684-6.301,2.051
	c-1.6,1.366-2.399,3.199-2.399,5.5c0,1.066,0.166,1.983,0.5,2.75c0.333,0.733,0.85,1.433,1.55,2.1
	C791.483,418.167,792.866,419.1,794.9,420.3z M776.25,403.1l-1.95,4.45c-1.5-0.666-3.116-1.233-4.85-1.7
	c-1.733-0.5-3.634-0.75-5.7-0.75c-3.3,0-6.3,1-9,3c-2.7,1.967-4.8,4.733-6.3,8.301c-1.5,3.533-2.25,7.5-2.25,11.899
	c0,3.733,1,6.65,3,8.75c2,2.134,4.783,3.2,8.35,3.2c3.033,0,5.584-0.384,7.65-1.15l2.8-13h-8.45l0.95-4.449h13.45l-4.5,20.85
	c-4.233,1.467-8.334,2.2-12.3,2.2c-5.134,0-9.134-1.417-12-4.25c-2.867-2.834-4.301-6.767-4.301-11.8c0-5.267,1-10.051,3-14.351
	c1.967-4.3,4.7-7.649,8.2-10.05c3.533-2.4,7.434-3.6,11.7-3.6c2.3,0,4.45,0.199,6.45,0.6
	C772.2,401.616,774.217,402.233,776.25,403.1z M736.7,401.25l-9.05,42.85h-5.301L708.9,408.25h-0.2
	c-0.601,4.333-1.316,8.417-2.15,12.25l-5.05,23.6h-4.75l9.05-42.85h5.3L724.55,437h0.15c0.6-4.366,1.3-8.316,2.1-11.85l5.101-23.9
	H736.7z M694.45,401.25l-9.101,42.85H680.4l9.149-42.85H694.45z M673.15,401.25h4.899L669,444.1h-4.9l4.2-20.149h-19.35L644.7,444.1
	h-5l9.05-42.85h5l-3.85,18.25h19.35L673.15,401.25z M535.85,171.05v164.2H477.7L417.75,219.6h-1.05
	c1.433,18.167,2.15,32.05,2.15,41.65v74h-39.3v-164.2h57.95l59.75,114.101h0.65c-1.033-16.534-1.55-29.817-1.55-39.851v-74.25
	H535.85z M641.7,405.7h-11.95l-8.2,38.399h-5l8.101-38.399h-11.9l0.95-4.45h28.85L641.7,405.7z"/>
</svg>
