<?xml version="1.0" encoding="utf-8"?>
<!-- Generator: Adobe Illustrator 16.0.0, SVG Export Plug-In . SVG Version: 6.00 Build 0)  -->
<!DOCTYPE svg PUBLIC "-//W3C//DTD SVG 1.1//EN" "http://www.w3.org/Graphics/SVG/1.1/DTD/svg11.dtd">
<svg version="1.1" id="Secondary_text" xmlns="http://www.w3.org/2000/svg" xmlns:xlink="http://www.w3.org/1999/xlink" x="0px"
	 y="0px" width="1030.5px" height="445px" viewBox="0 0 1030.5 445" enable-background="new 0 0 1030.5 445" xml:space="preserve">
<path fill-rule="evenodd" clip-rule="evenodd" fill="#FAFAFA" d="M1015.5,179.55c9.5,7.333,14.25,17.333,14.25,30
	c0,9.067-2.083,16.934-6.25,23.601c-4.267,6.566-11.05,12.816-20.35,18.75c-7.867,5.066-12.767,8.8-14.7,11.199
	c-2.033,2.334-3.05,5.101-3.05,8.301v5.75h-34.45v-9.65c0-7.333,1.483-13.517,4.45-18.55c3-5.066,8.316-10,15.949-14.8
	c6.067-3.834,10.45-7.284,13.15-10.351c2.634-3.066,3.95-6.583,3.95-10.55c0-3.133-1.434-5.6-4.3-7.4
	c-2.834-1.867-6.534-2.8-11.101-2.8c-11.3,0-24.517,4-39.649,12L917.8,184.5c18.634-10.633,38.101-15.95,58.4-15.95
	C992.9,168.55,1006,172.217,1015.5,179.55z M986.85,332.3c-4.166,3.733-9.85,5.601-17.05,5.601c-7.399,0-13.2-1.834-17.399-5.5
	c-4.2-3.733-6.301-9.051-6.301-15.95c0-6.867,2.017-12.184,6.051-15.95c3.966-3.733,9.85-5.6,17.649-5.6
	c7.5,0,13.267,1.899,17.3,5.699c3.967,3.767,5.95,9.051,5.95,15.851C993.05,323.283,990.983,328.566,986.85,332.3z M898.15,189.8
	c13.5,14.3,20.25,35.3,20.25,63c0,27.601-6.784,48.601-20.351,63c-13.566,14.367-33.399,21.55-59.5,21.55
	c-25.767,0-45.5-7.233-59.2-21.699c-13.767-14.434-20.649-35.467-20.649-63.101c0-27.333,6.85-48.183,20.55-62.55
	c13.6-14.433,33.434-21.65,59.5-21.65C864.884,168.35,884.684,175.5,898.15,189.8z M741.75,170.9v164.2H697.2V268.15h-51.55V335.1
	H601.05V170.9h44.601v60.9h51.55v-60.9H741.75z M871.65,252.8c0-16.399-2.733-28.5-8.2-36.3c-5.533-7.867-13.767-11.8-24.7-11.8
	c-22.233,0-33.35,16.033-33.35,48.1c0,31.733,11.05,47.601,33.149,47.601c11.2,0,19.533-3.851,25-11.551
	C868.95,281.116,871.65,269.1,871.65,252.8z M776.9,400.5c3.233,0,5.75,0.816,7.55,2.45c1.8,1.633,2.7,3.967,2.7,7
	c0,2.399-0.634,4.616-1.9,6.649c-1.3,2-3.5,4.167-6.6,6.5c-2.467,1.801-4.117,3.25-4.95,4.351c-0.867,1.1-1.533,2.666-2,4.7h-3.95
	c0.434-2.534,1.15-4.617,2.15-6.25c0.966-1.634,2.583-3.334,4.85-5.101c2.5-1.967,4.134-3.383,4.9-4.25
	c0.8-0.866,1.416-1.783,1.85-2.75c0.467-0.967,0.7-2.066,0.7-3.3c0-1.8-0.5-3.184-1.5-4.15c-1.033-1-2.483-1.5-4.351-1.5
	c-1.566,0-3.083,0.25-4.55,0.75c-1.434,0.5-2.8,1.051-4.1,1.65l-1.8-3.8c1.8-1,3.683-1.733,5.649-2.2
	C773.517,400.75,775.3,400.5,776.9,400.5z M770.85,443.45c-0.833,0.899-1.883,1.35-3.149,1.35c-0.9,0-1.617-0.25-2.15-0.75
	c-0.5-0.5-0.75-1.25-0.75-2.25c0-1.5,0.384-2.7,1.15-3.6c0.767-0.9,1.85-1.351,3.25-1.351c0.866,0,1.566,0.25,2.1,0.75
	c0.5,0.534,0.75,1.317,0.75,2.351C772.05,441.384,771.65,442.55,770.85,443.45z M763.45,405.55H751.5l-8.2,38.4h-5l8.101-38.4h-11.9
	l0.95-4.45h28.85L763.45,405.55z M725.05,401.1l5.351,42.851h-4.95l-1.7-13.601h-14.5l-7.2,13.601h-5.55l23.45-42.851H725.05z
	 M721.35,406.75c-0.699,1.7-1.483,3.4-2.35,5.1c-0.833,1.7-3.267,6.334-7.3,13.9h11.55L722.2,417
	C721.733,413.5,721.45,410.083,721.35,406.75z M695.2,401.1h4.899l-9.05,42.851h-4.899l4.199-20.15H671l-4.25,20.15h-5l9.05-42.851
	h5l-3.85,18.25h19.35L695.2,401.1z M664.45,401.1L645,443.95h-5l-1.45-28.25c-0.133-2.667-0.2-5.434-0.2-8.3h-0.199
	c-0.5,1.433-1.101,2.949-1.801,4.55c-0.699,1.6-5.616,12.267-14.75,32h-5.1l-1.8-42.851h4.95l1,29c0,1.9-0.101,4.417-0.301,7.551
	h0.15c1.733-4.733,3.267-8.467,4.6-11.2L636.95,401.1h5.2l1.25,25.2c0.199,3,0.3,5.967,0.3,8.9l-0.05,2.45h0.25
	c1.466-4.367,2.75-7.817,3.85-10.351l11.35-26.2H664.45z M592.3,170.9l-40.45,164.2H499.45l-15.75-71.55
	c-0.733-3-1.9-8.95-3.5-17.85c-1.633-8.9-2.817-16.351-3.55-22.351c-0.6,4.867-1.583,10.934-2.95,18.2
	c-1.333,7.2-2.633,13.834-3.9,19.9c-1.367,6.033-6.833,30.583-16.4,73.649h-52.45L360.3,170.9h42.75l17.9,82.35
	c4.033,18.167,6.8,32.65,8.3,43.45c0.967-7.634,2.717-18,5.25-31.101c2.467-13.1,4.8-23.966,7-32.6l14.45-62.1h41.1L511.1,233
	c2.4,9.967,4.834,21.467,7.301,34.5c2.466,13.033,4.116,22.767,4.949,29.2c0.967-8.3,3.617-22.717,7.95-43.25l18.2-82.55H592.3z"/>
</svg>
