<?xml version="1.0" encoding="utf-8"?>
<!-- Generator: Adobe Illustrator 16.0.0, SVG Export Plug-In . SVG Version: 6.00 Build 0)  -->
<!DOCTYPE svg PUBLIC "-//W3C//DTD SVG 1.1//EN" "http://www.w3.org/Graphics/SVG/1.1/DTD/svg11.dtd">
<svg version="1.1" id="Primary_text" xmlns="http://www.w3.org/2000/svg" xmlns:xlink="http://www.w3.org/1999/xlink" x="0px"
	 y="0px" width="1023px" height="445px" viewBox="0 0 1023 445" enable-background="new 0 0 1023 445" xml:space="preserve">
<path fill-rule="evenodd" clip-rule="evenodd" fill="#FAFAFA" d="M808.2,402.95l-1.95,4.399c-1.3-0.733-2.75-1.316-4.35-1.75
	c-1.601-0.433-3.067-0.649-4.4-0.649c-2.634,0-4.733,0.684-6.3,2.05c-1.601,1.366-2.4,3.2-2.4,5.5c0,1.066,0.167,1.983,0.5,2.75
	c0.334,0.733,0.851,1.434,1.55,2.1c0.733,0.667,2.117,1.601,4.15,2.801c2.9,1.699,4.85,3.033,5.85,4c1,1,1.767,2.1,2.301,3.3
	c0.5,1.166,0.75,2.533,0.75,4.1c0,4.101-1.367,7.3-4.101,9.601c-2.767,2.267-6.633,3.399-11.6,3.399
	c-2.066,0-3.884-0.133-5.45-0.399c-1.6-0.301-3.083-0.784-4.45-1.45v-5c3.167,1.633,6.483,2.45,9.95,2.45
	c3.167,0,5.684-0.733,7.55-2.2c1.834-1.467,2.75-3.483,2.75-6.05c0-1.534-0.5-2.884-1.5-4.051c-1.033-1.166-2.95-2.533-5.75-4.1
	c-2.934-1.667-4.967-3.333-6.1-5c-1.167-1.667-1.75-3.634-1.75-5.9c0-3.633,1.283-6.6,3.85-8.899c2.601-2.3,6-3.45,10.2-3.45
	c1.934,0,3.733,0.184,5.4,0.55C804.566,401.417,806.333,402.05,808.2,402.95z M776.35,402.95l-1.949,4.45
	c-1.5-0.667-3.117-1.233-4.851-1.7c-1.733-0.5-3.633-0.75-5.7-0.75c-3.3,0-6.3,1-9,3c-2.699,1.967-4.8,4.733-6.3,8.3
	c-1.5,3.533-2.25,7.5-2.25,11.9c0,3.733,1,6.649,3,8.75c2,2.133,4.783,3.199,8.351,3.199c3.033,0,5.583-0.383,7.649-1.149l2.8-13
	h-8.449l0.949-4.45h13.45l-4.5,20.85c-4.233,1.467-8.333,2.2-12.3,2.2c-5.134,0-9.134-1.416-12-4.25
	c-2.866-2.833-4.3-6.767-4.3-11.8c0-5.267,1-10.05,3-14.35c1.967-4.301,4.7-7.65,8.2-10.051c3.533-2.399,7.433-3.6,11.699-3.6
	c2.301,0,4.45,0.2,6.45,0.6C772.3,401.467,774.316,402.083,776.35,402.95z M736.8,401.1l-9.05,42.851h-5.3L709,408.1h-0.2
	c-0.6,4.334-1.316,8.417-2.149,12.25L701.6,443.95h-4.75L705.9,401.1h5.3l13.45,35.75h0.149c0.601-4.366,1.3-8.316,2.101-11.85
	l5.1-23.9H736.8z M694.55,401.1l-9.1,42.851h-4.95l9.15-42.851H694.55z M678.15,401.1L669.1,443.95H664.2l4.2-20.15H649.05
	l-4.25,20.15h-5l9.05-42.851h5L650,419.35h19.35l3.9-18.25H678.15z M641.8,405.55h-11.95l-8.199,38.4h-5l8.1-38.4h-11.9l0.95-4.45
	h28.851L641.8,405.55z"/>
</svg>
