<?xml version="1.0" encoding="utf-8"?>
<!-- Generator: Adobe Illustrator 16.0.0, SVG Export Plug-In . SVG Version: 6.00 Build 0)  -->
<!DOCTYPE svg PUBLIC "-//W3C//DTD SVG 1.1//EN" "http://www.w3.org/Graphics/SVG/1.1/DTD/svg11.dtd">
<svg version="1.1" id="Secondary_text" xmlns="http://www.w3.org/2000/svg" xmlns:xlink="http://www.w3.org/1999/xlink" x="0px"
	 y="0px" width="1023px" height="445px" viewBox="0 0 1023 445" enable-background="new 0 0 1023 445" xml:space="preserve">
<path fill="none" d="M776.9,400.5c3.233,0,5.75,0.816,7.55,2.45s2.7,3.968,2.7,7c0,2.399-0.634,4.616-1.9,6.649
	c-1.3,2-3.5,4.167-6.6,6.5c-2.467,1.801-4.117,3.25-4.95,4.351c-0.866,1.101-1.532,2.666-2,4.7h-3.95
	c0.435-2.534,1.15-4.617,2.15-6.25c0.966-1.634,2.583-3.334,4.85-5.101c2.5-1.968,4.135-3.384,4.9-4.25
	c0.8-0.866,1.416-1.783,1.85-2.75c0.468-0.968,0.7-2.066,0.7-3.3c0-1.801-0.5-3.185-1.5-4.15c-1.032-1-2.482-1.5-4.351-1.5
	c-1.566,0-3.083,0.25-4.55,0.75c-1.435,0.5-2.8,1.051-4.101,1.65l-1.8-3.801c1.8-1,3.683-1.732,5.649-2.199
	C773.517,400.75,775.301,400.5,776.9,400.5z M772.051,439.95c0,1.435-0.399,2.601-1.2,3.5c-0.833,0.899-1.883,1.351-3.149,1.351
	c-0.899,0-1.617-0.25-2.149-0.75c-0.5-0.5-0.75-1.25-0.75-2.25c0-1.5,0.384-2.7,1.149-3.601c0.768-0.899,1.851-1.351,3.25-1.351
	c0.866,0,1.566,0.25,2.101,0.75C771.801,438.135,772.051,438.918,772.051,439.95z M751.5,405.551l-8.199,38.399h-5l8.101-38.399
	h-11.899l0.949-4.45h28.851l-0.851,4.45H751.5z M719,411.85c-0.832,1.7-3.267,6.334-7.3,13.899h11.55L722.2,417
	c-0.467-3.5-0.75-6.916-0.851-10.25C720.65,408.45,719.866,410.15,719,411.85z M725.051,401.1l5.351,42.851h-4.95l-1.699-13.601
	h-14.5l-7.2,13.601h-5.55l23.449-42.851H725.051z M695.2,401.1h4.899l-9.05,42.851h-4.899l4.199-20.149H671l-4.25,20.149h-5
	l9.051-42.851h5l-3.851,18.25h19.351L695.2,401.1z M664.45,401.1L645,443.95h-5l-1.449-28.25c-0.133-2.667-0.2-5.434-0.2-8.3h-0.199
	c-0.5,1.434-1.101,2.949-1.801,4.55c-0.699,1.601-5.616,12.268-14.75,32H616.5l-1.8-42.851h4.95l1,29
	c0,1.899-0.101,4.417-0.301,7.551h0.15c1.732-4.732,3.267-8.467,4.6-11.2l11.851-25.35h5.2l1.25,25.2c0.199,3,0.3,5.967,0.3,8.899
	l-0.05,2.45h0.25c1.466-4.367,2.75-7.816,3.85-10.351l11.351-26.2L664.45,401.1L664.45,401.1z"/>
</svg>
