<?xml version="1.0" encoding="utf-8"?>
<!-- Generator: Adobe Illustrator 16.0.0, SVG Export Plug-In . SVG Version: 6.00 Build 0)  -->
<!DOCTYPE svg PUBLIC "-//W3C//DTD SVG 1.1//EN" "http://www.w3.org/Graphics/SVG/1.1/DTD/svg11.dtd">
<svg version="1.1" id="Secondary_text" xmlns="http://www.w3.org/2000/svg" xmlns:xlink="http://www.w3.org/1999/xlink" x="0px"
	 y="0px" width="1023px" height="445px" viewBox="0 0 1023 445" enable-background="new 0 0 1023 445" xml:space="preserve">
<path fill-rule="evenodd" clip-rule="evenodd" fill="#FAFAFA" d="M776.9,400.5c3.233,0,5.75,0.816,7.55,2.45
	c1.8,1.633,2.7,3.967,2.7,7c0,2.399-0.634,4.616-1.9,6.649c-1.3,2-3.5,4.167-6.6,6.5c-2.467,1.801-4.117,3.25-4.95,4.351
	c-0.867,1.1-1.533,2.666-2,4.7h-3.95c0.434-2.534,1.15-4.617,2.15-6.25c0.966-1.634,2.583-3.334,4.85-5.101
	c2.5-1.967,4.134-3.383,4.9-4.25c0.8-0.866,1.416-1.783,1.85-2.75c0.467-0.967,0.7-2.066,0.7-3.3c0-1.8-0.5-3.184-1.5-4.15
	c-1.033-1-2.483-1.5-4.351-1.5c-1.566,0-3.083,0.25-4.55,0.75c-1.434,0.5-2.8,1.051-4.1,1.65l-1.8-3.8c1.8-1,3.683-1.733,5.649-2.2
	C773.517,400.75,775.3,400.5,776.9,400.5z M772.05,439.95c0,1.434-0.399,2.6-1.2,3.5c-0.833,0.899-1.883,1.35-3.149,1.35
	c-0.9,0-1.617-0.25-2.15-0.75c-0.5-0.5-0.75-1.25-0.75-2.25c0-1.5,0.384-2.7,1.15-3.6c0.767-0.9,1.85-1.351,3.25-1.351
	c0.866,0,1.566,0.25,2.1,0.75C771.8,438.134,772.05,438.917,772.05,439.95z M751.5,405.55l-8.2,38.4h-5l8.101-38.4h-11.9l0.95-4.45
	h28.85l-0.85,4.45H751.5z M719,411.85c-0.833,1.7-3.267,6.334-7.3,13.9h11.55L722.2,417c-0.467-3.5-0.75-6.917-0.851-10.25
	C720.65,408.45,719.866,410.15,719,411.85z M725.05,401.1l5.351,42.851h-4.95l-1.7-13.601h-14.5l-7.2,13.601h-5.55l23.45-42.851
	H725.05z M695.2,401.1h4.899l-9.05,42.851h-4.899l4.199-20.15H671l-4.25,20.15h-5l9.05-42.851h5l-3.85,18.25h19.35L695.2,401.1z
	 M664.45,401.1L645,443.95h-5l-1.45-28.25c-0.133-2.667-0.2-5.434-0.2-8.3h-0.199c-0.5,1.433-1.101,2.949-1.801,4.55
	c-0.699,1.6-5.616,12.267-14.75,32h-5.1l-1.8-42.851h4.95l1,29c0,1.9-0.101,4.417-0.301,7.551h0.15
	c1.733-4.733,3.267-8.467,4.6-11.2L636.95,401.1h5.2l1.25,25.2c0.199,3,0.3,5.967,0.3,8.9l-0.05,2.45h0.25
	c1.466-4.367,2.75-7.817,3.85-10.351l11.35-26.2H664.45z"/>
</svg>
