<?xml version="1.0" encoding="utf-8"?>
<!-- Generator: Adobe Illustrator 16.0.0, SVG Export Plug-In . SVG Version: 6.00 Build 0)  -->
<!DOCTYPE svg PUBLIC "-//W3C//DTD SVG 1.1//EN" "http://www.w3.org/Graphics/SVG/1.1/DTD/svg11.dtd">
<svg version="1.1" id="Secondary_text" xmlns="http://www.w3.org/2000/svg" xmlns:xlink="http://www.w3.org/1999/xlink" x="0px"
	 y="0px" width="1035px" height="445px" viewBox="0 0 1035 445" enable-background="new 0 0 1035 445" xml:space="preserve">
<path fill="none" d="M1015.5,179.55c9.5,7.333,14.25,17.333,14.25,30c0,9.067-2.083,16.935-6.25,23.601
	c-4.267,6.566-11.05,12.816-20.35,18.75c-7.867,5.066-12.768,8.801-14.7,11.199c-2.033,2.334-3.05,5.102-3.05,8.301v5.75h-34.45
	v-9.649c0-7.333,1.482-13.517,4.45-18.55c3-5.066,8.315-10,15.948-14.801c6.067-3.834,10.45-7.283,13.15-10.351
	c2.634-3.066,3.95-6.583,3.95-10.55c0-3.133-1.435-5.6-4.3-7.4c-2.834-1.867-6.534-2.8-11.102-2.8c-11.3,0-24.517,4-39.648,12
	l-15.6-30.55c18.634-10.633,38.102-15.95,58.4-15.95C992.9,168.55,1006,172.217,1015.5,179.55z M986.85,332.3
	c-4.166,3.733-9.85,5.601-17.05,5.601c-7.398,0-13.2-1.834-17.398-5.5c-4.2-3.732-6.302-9.051-6.302-15.949
	c0-6.867,2.018-12.184,6.052-15.95c3.966-3.733,9.85-5.601,17.648-5.601c7.5,0,13.268,1.899,17.3,5.699
	c3.968,3.768,5.95,9.051,5.95,15.852C993.05,323.283,990.983,328.566,986.85,332.3z M898.15,189.8c13.5,14.3,20.25,35.3,20.25,63
	c0,27.601-6.784,48.601-20.352,63c-13.565,14.367-33.398,21.55-59.5,21.55c-25.767,0-45.5-7.232-59.2-21.699
	c-13.767-14.434-20.648-35.467-20.648-63.101c0-27.333,6.85-48.183,20.55-62.55c13.6-14.433,33.434-21.65,59.5-21.65
	C864.884,168.35,884.684,175.5,898.15,189.8z M741.75,170.9v164.2H697.2V268.15h-51.55V335.1H601.05V170.9h44.602v60.9h51.55v-60.9
	H741.75z M871.65,252.8c0-16.399-2.733-28.5-8.2-36.3c-5.533-7.867-13.768-11.8-24.7-11.8c-22.233,0-33.35,16.033-33.35,48.1
	c0,31.733,11.05,47.601,33.148,47.601c11.2,0,19.533-3.851,25-11.551C868.95,281.116,871.65,269.1,871.65,252.8z M592.3,170.9
	l-40.45,164.2H499.45l-15.75-71.55c-0.733-3-1.9-8.95-3.5-17.85c-1.633-8.9-2.817-16.351-3.55-22.351
	c-0.601,4.866-1.583,10.934-2.95,18.199c-1.333,7.2-2.633,13.834-3.9,19.9c-1.367,6.033-6.833,30.583-16.399,73.648h-52.45
	L360.3,170.9h42.75l17.9,82.35c4.033,18.167,6.8,32.65,8.3,43.45c0.967-7.634,2.717-18,5.25-31.101
	c2.467-13.101,4.8-23.967,7-32.601l14.45-62.1h41.1L511.1,233c2.4,9.967,4.834,21.467,7.302,34.5
	c2.466,13.033,4.115,22.768,4.948,29.2c0.968-8.3,3.617-22.718,7.95-43.25l18.2-82.55H592.3z"/>
</svg>
