<?xml version="1.0" encoding="utf-8"?>
<!-- Generator: Adobe Illustrator 16.0.0, SVG Export Plug-In . SVG Version: 6.00 Build 0)  -->
<!DOCTYPE svg PUBLIC "-//W3C//DTD SVG 1.1//EN" "http://www.w3.org/Graphics/SVG/1.1/DTD/svg11.dtd">
<svg version="1.1" id="Layer_1" xmlns="http://www.w3.org/2000/svg" xmlns:xlink="http://www.w3.org/1999/xlink" x="0px" y="0px"
	 width="883px" height="822px" viewBox="0 0 883 822" enable-background="new 0 0 883 822" xml:space="preserve">
<path fill-rule="evenodd" clip-rule="evenodd" fill="#333333" d="M54.95,787.65v17.699H53.8V787.65H54.95z M60.25,788.75
	c0.133,0.2,0.2,0.467,0.2,0.8c0,0.334-0.067,0.601-0.2,0.8c-0.133,0.2-0.317,0.301-0.55,0.301c-0.5,0-0.75-0.367-0.75-1.101
	s0.25-1.1,0.75-1.1C59.933,788.45,60.117,788.55,60.25,788.75z M79.25,787.65l-0.1,12.3h0.05l6.35-6.95h1.35l-4.85,5.25l5.25,7.1
	h-1.35l-4.7-6.25l-2,1.851v4.399H78.1V787.65H79.25z M54.85,772.3c-6.428,0.165-11.936,2.506-16.525,7.025
	c-4.72,4.755-7.078,10.497-7.075,17.225c-0.002,6.694,2.356,12.403,7.075,17.125c4.595,4.59,10.112,6.965,16.55,7.125h74.175
	c6.428-0.164,11.936-2.506,16.525-7.024c4.719-4.756,7.078-10.497,7.075-17.226c0.002-6.694-2.356-12.402-7.075-17.125
	c-4.596-4.59-10.112-6.965-16.55-7.125H54.85z M37.275,778.275c4.872-4.81,10.722-7.301,17.55-7.476h74.25
	c6.828,0.173,12.678,2.698,17.55,7.575c5.015,5.012,7.523,11.069,7.525,18.175c-0.002,7.139-2.511,13.23-7.525,18.275
	c-4.872,4.809-10.722,7.3-17.55,7.475h-74.25c-6.829-0.173-12.679-2.698-17.55-7.575c-5.015-5.011-7.523-11.069-7.525-18.175
	C29.752,789.411,32.261,783.319,37.275,778.275z M116.1,788.45c0.233,0,0.417,0.1,0.55,0.3s0.2,0.467,0.2,0.8
	c0,0.334-0.067,0.601-0.2,0.8c-0.133,0.2-0.316,0.301-0.55,0.301c-0.5,0-0.75-0.367-0.75-1.101S115.6,788.45,116.1,788.45z
	 M111.4,787.65v17.699h-0.75l-0.3-1.899h-0.1c-0.933,1.434-2.283,2.149-4.05,2.149c-1.7,0-3-0.533-3.9-1.6
	c-0.9-1.066-1.35-2.616-1.35-4.65c0-2.133,0.45-3.767,1.35-4.899c0.9-1.134,2.2-1.7,3.9-1.7c0.9,0,1.667,0.167,2.3,0.5
	c0.667,0.333,1.25,0.884,1.75,1.65h0.1c-0.067-0.934-0.1-1.867-0.1-2.801v-4.449H111.4z M128.6,794.65
	c-0.533-0.567-1.35-0.851-2.45-0.851c-1.467,0-2.533,0.367-3.2,1.101c-0.7,0.733-1.05,1.949-1.05,3.649v6.8h-1.15V793h0.95l0.25,1.7
	H122c0.8-1.3,2.233-1.95,4.3-1.95c2.8,0,4.2,1.5,4.2,4.5v8.1h-1.1v-8C129.4,796.083,129.133,795.184,128.6,794.65z M116.65,793
	v12.35h-1.15V793H116.65z M103.15,795.2c-0.667,0.934-1,2.316-1,4.149c0,3.5,1.35,5.25,4.05,5.25c1.4,0,2.433-0.416,3.1-1.25
	c0.633-0.8,0.95-2.133,0.95-4v-0.199c0-1.9-0.317-3.267-0.95-4.101c-0.633-0.833-1.667-1.25-3.1-1.25
	C104.833,793.8,103.817,794.267,103.15,795.2z M93.6,793.75c-1.2,0-2.167,0.4-2.9,1.2c-0.7,0.767-1.117,1.899-1.25,3.399h7.65
	c0-1.433-0.317-2.566-0.95-3.399C95.55,794.15,94.7,793.75,93.6,793.75z M98.3,799.35h-8.9c0,1.667,0.4,2.95,1.2,3.851
	c0.767,0.899,1.867,1.35,3.3,1.35c0.7,0,1.317-0.05,1.85-0.149c0.533-0.101,1.217-0.317,2.05-0.65v1.05
	c-0.7,0.3-1.35,0.5-1.95,0.601c-0.567,0.133-1.217,0.199-1.95,0.199c-1.8,0-3.2-0.566-4.2-1.699c-1-1.101-1.5-2.65-1.5-4.65
	c0-1.967,0.483-3.533,1.45-4.7c0.967-1.2,2.283-1.8,3.95-1.8c1.433,0,2.566,0.517,3.4,1.55c0.867,1,1.3,2.367,1.3,4.101V799.35z
	 M72.2,794.65c-0.534-0.567-1.35-0.851-2.45-0.851c-1.467,0-2.533,0.367-3.2,1.101c-0.7,0.733-1.05,1.949-1.05,3.649v6.8h-1.15V793
	h0.95l0.25,1.7h0.05c0.8-1.3,2.233-1.95,4.3-1.95c2.8,0,4.2,1.5,4.2,4.5v8.1H73v-8C73,796.083,72.733,795.184,72.2,794.65z
	 M60.25,793v12.35H59.1V793H60.25z"/>
</svg>
