<?xml version="1.0" encoding="utf-8"?>
<!-- Generator: Adobe Illustrator 16.0.0, SVG Export Plug-In . SVG Version: 6.00 Build 0)  -->
<!DOCTYPE svg PUBLIC "-//W3C//DTD SVG 1.1//EN" "http://www.w3.org/Graphics/SVG/1.1/DTD/svg11.dtd">
<svg version="1.1" id="Layer_1" xmlns="http://www.w3.org/2000/svg" xmlns:xlink="http://www.w3.org/1999/xlink" x="0px" y="0px"
	 width="883px" height="822px" viewBox="0 0 883 822" enable-background="new 0 0 883 822" xml:space="preserve">
<g>
	<path fill-rule="evenodd" clip-rule="evenodd" fill="#FFCC33" d="M79.25,787.65H78.1v17.699h1.15v-4.399l2-1.851l4.7,6.25h1.35
		l-5.25-7.1L86.9,793h-1.35l-6.35,6.95h-0.05L79.25,787.65z M60.25,788.75c-0.133-0.2-0.317-0.3-0.55-0.3
		c-0.5,0-0.75,0.366-0.75,1.1s0.25,1.101,0.75,1.101c0.233,0,0.417-0.101,0.55-0.301c0.133-0.199,0.2-0.466,0.2-0.8
		C60.45,789.217,60.383,788.95,60.25,788.75z M54.95,787.65H53.8v17.699h1.15V787.65z M37.275,778.275
		c4.872-4.81,10.722-7.301,17.55-7.476h74.25c6.828,0.173,12.678,2.698,17.55,7.575c5.015,5.012,7.523,11.069,7.525,18.175
		c-0.002,7.139-2.511,13.23-7.525,18.275c-4.872,4.809-10.722,7.3-17.55,7.475h-74.25c-6.829-0.173-12.679-2.698-17.55-7.575
		c-5.015-5.011-7.523-11.069-7.525-18.175C29.752,789.411,32.261,783.319,37.275,778.275z M59.1,805.35h1.15V793H59.1V805.35z
		 M72.2,794.65c0.533,0.533,0.8,1.433,0.8,2.699v8h1.1v-8.1c0-3-1.4-4.5-4.2-4.5c-2.066,0-3.5,0.65-4.3,1.95h-0.05L65.3,793h-0.95
		v12.35h1.15v-6.8c0-1.7,0.35-2.916,1.05-3.649c0.667-0.733,1.733-1.101,3.2-1.101C70.85,793.8,71.667,794.083,72.2,794.65z
		 M96.15,794.95c0.633,0.833,0.95,1.967,0.95,3.399h-7.65c0.133-1.5,0.55-2.633,1.25-3.399c0.733-0.8,1.7-1.2,2.9-1.2
		C94.7,793.75,95.55,794.15,96.15,794.95z M97,794.3c-0.833-1.033-1.967-1.55-3.4-1.55c-1.667,0-2.983,0.6-3.95,1.8
		c-0.967,1.167-1.45,2.733-1.45,4.7c0,2,0.5,3.55,1.5,4.65c1,1.133,2.4,1.699,4.2,1.699c0.733,0,1.383-0.066,1.95-0.199
		c0.6-0.101,1.25-0.301,1.95-0.601v-1.05c-0.833,0.333-1.517,0.55-2.05,0.65c-0.533,0.1-1.15,0.149-1.85,0.149
		c-1.433,0-2.533-0.45-3.3-1.35c-0.8-0.9-1.2-2.184-1.2-3.851h8.9V798.4C98.3,796.667,97.867,795.3,97,794.3z M103.15,795.2
		c0.667-0.934,1.684-1.4,3.05-1.4c1.433,0,2.466,0.417,3.1,1.25c0.633,0.834,0.95,2.2,0.95,4.101v0.199c0,1.867-0.317,3.2-0.95,4
		c-0.667,0.834-1.7,1.25-3.1,1.25c-2.7,0-4.05-1.75-4.05-5.25C102.15,797.517,102.483,796.134,103.15,795.2z M116.65,793h-1.15
		v12.35h1.15V793z M122.95,794.9c0.667-0.733,1.733-1.101,3.2-1.101c1.1,0,1.917,0.283,2.45,0.851c0.533,0.533,0.8,1.433,0.8,2.699
		v8h1.1v-8.1c0-3-1.4-4.5-4.2-4.5c-2.066,0-3.5,0.65-4.3,1.95h-0.05l-0.25-1.7h-0.95v12.35h1.15v-6.8
		C121.9,796.85,122.25,795.634,122.95,794.9z M116.65,788.75c-0.133-0.2-0.316-0.3-0.55-0.3c-0.5,0-0.75,0.366-0.75,1.1
		s0.25,1.101,0.75,1.101c0.233,0,0.417-0.101,0.55-0.301c0.133-0.199,0.2-0.466,0.2-0.8
		C116.85,789.217,116.783,788.95,116.65,788.75z M111.4,787.65h-1.15v4.449c0,0.934,0.033,1.867,0.1,2.801h-0.1
		c-0.5-0.767-1.083-1.317-1.75-1.65c-0.633-0.333-1.4-0.5-2.3-0.5c-1.7,0-3,0.566-3.9,1.7c-0.9,1.133-1.35,2.767-1.35,4.899
		c0,2.034,0.45,3.584,1.35,4.65c0.9,1.066,2.2,1.6,3.9,1.6c1.767,0,3.117-0.716,4.05-2.149h0.1l0.3,1.899h0.75V787.65z"/>
	<path fill-rule="evenodd" clip-rule="evenodd" fill="#FAFAFA" d="M54.95,787.65v17.699H53.8V787.65H54.95z M60.25,788.75
		c0.133,0.2,0.2,0.467,0.2,0.8c0,0.334-0.067,0.601-0.2,0.8c-0.133,0.2-0.317,0.301-0.55,0.301c-0.5,0-0.75-0.367-0.75-1.101
		s0.25-1.1,0.75-1.1C59.933,788.45,60.117,788.55,60.25,788.75z M79.25,787.65l-0.1,12.3h0.05l6.35-6.95h1.35l-4.85,5.25l5.25,7.1
		h-1.35l-4.7-6.25l-2,1.851v4.399H78.1V787.65H79.25z M111.4,787.65v17.699h-0.75l-0.3-1.899h-0.1
		c-0.933,1.434-2.283,2.149-4.05,2.149c-1.7,0-3-0.533-3.9-1.6c-0.9-1.066-1.35-2.616-1.35-4.65c0-2.133,0.45-3.767,1.35-4.899
		c0.9-1.134,2.2-1.7,3.9-1.7c0.9,0,1.667,0.167,2.3,0.5c0.667,0.333,1.25,0.884,1.75,1.65h0.1c-0.067-0.934-0.1-1.867-0.1-2.801
		v-4.449H111.4z M116.65,788.75c0.133,0.2,0.2,0.467,0.2,0.8c0,0.334-0.067,0.601-0.2,0.8c-0.133,0.2-0.316,0.301-0.55,0.301
		c-0.5,0-0.75-0.367-0.75-1.101s0.25-1.1,0.75-1.1C116.333,788.45,116.517,788.55,116.65,788.75z M122.95,794.9
		c-0.7,0.733-1.05,1.949-1.05,3.649v6.8h-1.15V793h0.95l0.25,1.7H122c0.8-1.3,2.233-1.95,4.3-1.95c2.8,0,4.2,1.5,4.2,4.5v8.1h-1.1
		v-8c0-1.267-0.267-2.166-0.8-2.699c-0.533-0.567-1.35-0.851-2.45-0.851C124.683,793.8,123.617,794.167,122.95,794.9z M116.65,793
		v12.35h-1.15V793H116.65z M103.15,795.2c-0.667,0.934-1,2.316-1,4.149c0,3.5,1.35,5.25,4.05,5.25c1.4,0,2.433-0.416,3.1-1.25
		c0.633-0.8,0.95-2.133,0.95-4v-0.199c0-1.9-0.317-3.267-0.95-4.101c-0.633-0.833-1.667-1.25-3.1-1.25
		C104.833,793.8,103.817,794.267,103.15,795.2z M97,794.3c0.867,1,1.3,2.367,1.3,4.101v0.949h-8.9c0,1.667,0.4,2.95,1.2,3.851
		c0.767,0.899,1.867,1.35,3.3,1.35c0.7,0,1.317-0.05,1.85-0.149c0.533-0.101,1.217-0.317,2.05-0.65v1.05
		c-0.7,0.3-1.35,0.5-1.95,0.601c-0.567,0.133-1.217,0.199-1.95,0.199c-1.8,0-3.2-0.566-4.2-1.699c-1-1.101-1.5-2.65-1.5-4.65
		c0-1.967,0.483-3.533,1.45-4.7c0.967-1.2,2.283-1.8,3.95-1.8C95.033,792.75,96.167,793.267,97,794.3z M96.15,794.95
		c-0.6-0.8-1.45-1.2-2.55-1.2c-1.2,0-2.167,0.4-2.9,1.2c-0.7,0.767-1.117,1.899-1.25,3.399h7.65
		C97.1,796.917,96.783,795.783,96.15,794.95z M72.2,794.65c-0.534-0.567-1.35-0.851-2.45-0.851c-1.467,0-2.533,0.367-3.2,1.101
		c-0.7,0.733-1.05,1.949-1.05,3.649v6.8h-1.15V793h0.95l0.25,1.7h0.05c0.8-1.3,2.233-1.95,4.3-1.95c2.8,0,4.2,1.5,4.2,4.5v8.1H73v-8
		C73,796.083,72.733,795.184,72.2,794.65z M59.1,805.35V793h1.15v12.35H59.1z"/>
</g>
</svg>
