<?xml version="1.0" encoding="utf-8"?>
<!-- Generator: Adobe Illustrator 16.0.0, SVG Export Plug-In . SVG Version: 6.00 Build 0)  -->
<!DOCTYPE svg PUBLIC "-//W3C//DTD SVG 1.1//EN" "http://www.w3.org/Graphics/SVG/1.1/DTD/svg11.dtd">
<svg version="1.1" id="Layer_1_copy_4" xmlns="http://www.w3.org/2000/svg" xmlns:xlink="http://www.w3.org/1999/xlink" x="0px"
	 y="0px" width="883px" height="822px" viewBox="0 0 883 822" enable-background="new 0 0 883 822" xml:space="preserve">
<path fill-rule="evenodd" clip-rule="evenodd" fill="#FFCC33" d="M50.5,740.95c4.367,0,6.55-1.134,6.55-3.4
	c0-0.566-0.183-1.033-0.55-1.399c-0.367-0.367-0.867-0.551-1.5-0.551c-1.1,0-2.117,0.483-3.05,1.45
	c-0.967,0.967-1.667,2.267-2.1,3.9H50.5z M44.35,737.75c0-0.7-0.184-1.233-0.55-1.6c-0.367-0.367-0.933-0.551-1.7-0.551
	c-0.934,0-1.817,0.284-2.65,0.851c-0.867,0.566-1.583,1.35-2.15,2.35c-0.566,1.033-1,2.25-1.3,3.65l-1.3,6.05h-1.25l4.25-19.75h1.2
	l-1.1,5.2c-0.367,1.7-0.65,2.883-0.85,3.55h0.1c0.667-0.967,1.45-1.7,2.35-2.2c0.934-0.533,1.917-0.8,2.95-0.8s1.833,0.267,2.4,0.8
	c0.6,0.566,0.9,1.351,0.9,2.351c0,0.566-0.117,1.333-0.35,2.3l-1.85,8.55H42.2l1.9-8.8C44.267,738.934,44.35,738.283,44.35,737.75z
	 M49.7,742.1c-0.067,0.367-0.1,0.767-0.1,1.2c0,1.4,0.316,2.467,0.95,3.2s1.534,1.1,2.7,1.1c1.1,0,2.267-0.3,3.5-0.899v1.2
	c-1.2,0.566-2.467,0.85-3.8,0.85c-1.467,0-2.6-0.467-3.4-1.4c-0.833-0.933-1.25-2.216-1.25-3.85c0-1.533,0.3-3,0.9-4.4
	c0.6-1.433,1.433-2.55,2.5-3.35c1.033-0.833,2.183-1.25,3.45-1.25c0.967,0,1.733,0.25,2.3,0.75c0.6,0.533,0.9,1.233,0.9,2.1
	c0,1.534-0.7,2.7-2.1,3.5c-1.367,0.834-3.417,1.25-6.15,1.25H49.7z M76.2,736.55c-0.833,0.634-1.5,1.584-2,2.851
	c-0.5,1.233-0.75,2.533-0.75,3.899c0,2.9,1.2,4.351,3.6,4.351c1.067,0,2.017-0.317,2.85-0.95c0.833-0.667,1.5-1.634,2-2.9
	c0.5-1.3,0.75-2.7,0.75-4.2c0-1.3-0.316-2.3-0.95-3c-0.6-0.699-1.483-1.05-2.65-1.05C77.983,735.55,77.033,735.884,76.2,736.55z
	 M65.2,728.75l-4.25,19.75h-1.2L64,728.75H65.2z M71.25,728.75L67,748.5h-1.2l4.25-19.75H71.25z M75.55,735.6
	c1.067-0.767,2.267-1.149,3.6-1.149c1.5,0,2.684,0.45,3.55,1.35c0.833,0.934,1.25,2.2,1.25,3.8c0,1.667-0.317,3.233-0.95,4.7
	c-0.6,1.434-1.417,2.533-2.45,3.3c-1.066,0.767-2.283,1.15-3.65,1.15c-1.566,0-2.75-0.467-3.55-1.4c-0.8-0.933-1.2-2.25-1.2-3.949
	c0-1.634,0.3-3.15,0.9-4.551C73.683,737.417,74.517,736.333,75.55,735.6z M124.85,739.4c-0.5,1.233-0.75,2.533-0.75,3.899
	c0,2.9,1.2,4.351,3.6,4.351c1.066,0,2.017-0.317,2.85-0.95c0.833-0.667,1.5-1.634,2-2.9c0.5-1.3,0.75-2.7,0.75-4.2
	c0-1.3-0.316-2.3-0.95-3c-0.6-0.699-1.483-1.05-2.65-1.05c-1.067,0-2.017,0.334-2.85,1C126.017,737.184,125.35,738.134,124.85,739.4
	z M126.2,735.6c1.066-0.767,2.267-1.149,3.6-1.149c1.5,0,2.684,0.45,3.55,1.35c0.833,0.934,1.25,2.2,1.25,3.8
	c0,1.667-0.317,3.233-0.95,4.7c-0.6,1.434-1.417,2.533-2.45,3.3c-1.067,0.767-2.284,1.15-3.65,1.15c-1.566,0-2.75-0.467-3.55-1.4
	c-0.8-0.933-1.2-2.25-1.2-3.949c0-1.634,0.3-3.15,0.9-4.551C124.333,737.417,125.167,736.333,126.2,735.6z M139.2,739.75
	c-0.534,1.366-0.8,2.733-0.8,4.1c0,1.301,0.217,2.25,0.65,2.851c0.4,0.6,1.034,0.899,1.9,0.899c0.767,0,1.517-0.267,2.25-0.8
	c0.767-0.5,1.45-1.2,2.05-2.1c0.567-0.867,1.017-1.834,1.35-2.9c0.3-1.066,0.45-1.967,0.45-2.7c0-0.666-0.1-1.267-0.3-1.8
	c-0.233-0.533-0.567-0.95-1-1.25s-0.967-0.45-1.6-0.45c-1.066,0-2.017,0.334-2.85,1C140.467,737.3,139.767,738.35,139.2,739.75z
	 M140.6,735.75c1.066-0.833,2.233-1.25,3.5-1.25c1.967,0,3.15,0.917,3.55,2.75h0.1l0.75-2.55h1l-2.9,13.8h-1.05l0.55-3.5h-0.05
	c-0.7,1.2-1.5,2.134-2.4,2.8c-0.867,0.634-1.867,0.95-3,0.95c-2.367,0-3.55-1.583-3.55-4.75c0-1.667,0.316-3.25,0.95-4.75
	C138.683,737.717,139.533,736.55,140.6,735.75z M156.6,728.75l-1.1,5.2c-0.367,1.7-0.65,2.883-0.85,3.55h0.1
	c0.667-0.967,1.45-1.7,2.35-2.2c0.933-0.533,1.917-0.8,2.95-0.8c1.034,0,1.833,0.267,2.4,0.8c0.6,0.566,0.9,1.351,0.9,2.351
	c0,0.566-0.117,1.333-0.35,2.3l-1.85,8.55h-1.25l1.9-8.8c0.167-0.767,0.25-1.417,0.25-1.95c0-0.7-0.183-1.233-0.55-1.6
	c-0.367-0.367-0.933-0.551-1.7-0.551c-0.933,0-1.816,0.284-2.65,0.851c-0.867,0.566-1.583,1.35-2.15,2.35
	c-0.567,1.033-1,2.25-1.3,3.65l-1.3,6.05h-1.25l4.25-19.75H156.6z M88.3,735.8c1-1.866,2.417-3.3,4.25-4.3c1.833-1,3.833-1.5,6-1.5
	c1.6,0,3,0.3,4.2,0.9c1.2,0.633,2.15,1.533,2.85,2.699c0.667,1.2,1,2.534,1,4c0,1.534-0.25,2.9-0.75,4.101
	c-0.467,1.233-1.117,2.2-1.95,2.899c-0.833,0.7-1.733,1.051-2.7,1.051c-0.8,0-1.45-0.233-1.95-0.7c-0.467-0.467-0.7-1.084-0.7-1.851
	H98.5c-0.467,0.834-1.033,1.467-1.7,1.9c-0.667,0.434-1.383,0.65-2.15,0.65c-0.933,0-1.683-0.317-2.25-0.95
	c-0.566-0.601-0.85-1.45-0.85-2.55c0-1.334,0.267-2.534,0.8-3.601s1.3-1.899,2.3-2.5c0.967-0.6,2.067-0.899,3.3-0.899
	c1.033,0,2.1,0.216,3.2,0.649l-1.05,4c-0.333,1.167-0.5,2.101-0.5,2.8c0,0.601,0.15,1.067,0.45,1.4
	c0.267,0.366,0.684,0.55,1.25,0.55c0.733,0,1.417-0.316,2.05-0.95c0.6-0.633,1.1-1.466,1.5-2.5c0.333-1.066,0.5-2.133,0.5-3.199
	c0-1.334-0.267-2.517-0.8-3.551c-0.566-1-1.367-1.783-2.4-2.35c-1-0.566-2.233-0.85-3.7-0.85c-1.967,0-3.75,0.449-5.35,1.35
	c-1.633,0.934-2.883,2.233-3.75,3.9c-0.9,1.633-1.35,3.483-1.35,5.55c0,2.434,0.65,4.333,1.95,5.7c1.3,1.366,3.133,2.05,5.5,2.05
	c1.767,0,3.55-0.351,5.35-1.05v1.149c-1.767,0.7-3.583,1.05-5.45,1.05c-1.7,0-3.2-0.35-4.5-1.05c-1.333-0.7-2.35-1.717-3.05-3.05
	c-0.7-1.333-1.05-2.9-1.05-4.7C86.75,739.717,87.267,737.634,88.3,735.8z M92.9,742.1c0,0.767,0.167,1.367,0.5,1.801
	c0.333,0.433,0.817,0.649,1.45,0.649c0.867,0,1.633-0.383,2.3-1.149c0.667-0.767,1.184-1.851,1.55-3.25l1-3.65
	c-0.567-0.2-1.15-0.3-1.75-0.3c-0.967,0-1.833,0.25-2.6,0.75s-1.367,1.2-1.8,2.1C93.117,739.95,92.9,740.967,92.9,742.1z
	 M119.35,735.3c0.566,0.533,0.85,1.316,0.85,2.351c0,0.566-0.117,1.333-0.35,2.3L118,748.5h-1.25l1.9-8.8
	c0.167-0.767,0.25-1.417,0.25-1.95c0-0.7-0.183-1.233-0.55-1.6c-0.367-0.367-0.934-0.551-1.7-0.551c-0.933,0-1.816,0.284-2.65,0.851
	c-0.867,0.566-1.583,1.35-2.15,2.35c-0.567,1.033-1,2.25-1.3,3.65l-1.3,6.05H108l2.95-13.8H112l-0.5,2.8h0.1c1.4-2,3.167-3,5.3-3
	C118,734.5,118.817,734.767,119.35,735.3z M209.95,736.05c-0.567,0.367-1,0.867-1.3,1.5c-0.333,0.601-0.5,1.233-0.5,1.9
	c0,0.967,0.25,1.7,0.75,2.2c0.5,0.466,1.2,0.699,2.1,0.699c0.733,0,1.383-0.149,1.95-0.449c0.566-0.301,1-0.784,1.3-1.45
	c0.3-0.667,0.45-1.384,0.45-2.15c0-0.866-0.233-1.55-0.7-2.05c-0.467-0.467-1.133-0.7-2-0.7
	C211.233,735.55,210.55,735.717,209.95,736.05z M212.05,734.45c0.6,0,1.233,0.083,1.9,0.25h4.55l-0.2,1l-3.1,0.149
	c0.233,0.233,0.417,0.584,0.55,1.051c0.167,0.466,0.25,0.949,0.25,1.449c0,0.934-0.233,1.817-0.7,2.65
	c-0.466,0.8-1.1,1.417-1.9,1.85c-0.767,0.4-1.667,0.601-2.7,0.601c-0.534,0-0.85-0.05-0.95-0.15c-0.7,0.3-1.233,0.617-1.6,0.95
	s-0.55,0.684-0.55,1.05c0,0.334,0.133,0.601,0.4,0.8c0.267,0.2,0.75,0.334,1.45,0.4l1.5,0.15c2.933,0.267,4.4,1.383,4.4,3.35
	c0,0.934-0.267,1.767-0.8,2.5c-0.566,0.733-1.367,1.283-2.4,1.65c-1.033,0.399-2.267,0.6-3.7,0.6c-1.567,0-2.784-0.3-3.65-0.9
	c-0.9-0.633-1.35-1.5-1.35-2.6c0-2,1.3-3.417,3.9-4.25c-0.667-0.333-1-0.85-1-1.55c0-1.033,0.816-1.884,2.45-2.55
	c-0.6-0.301-1.066-0.75-1.4-1.351c-0.333-0.6-0.5-1.267-0.5-2c0-0.934,0.217-1.8,0.65-2.6c0.467-0.767,1.1-1.384,1.9-1.851
	C210.25,734.667,211.117,734.45,212.05,734.45z M222.45,735.8c1.066-0.866,2.267-1.3,3.6-1.3c1.967,0,3.15,0.917,3.55,2.75h0.05
	c0.1-0.533,0.7-3.366,1.8-8.5h1.3l-4.2,19.75h-1.05l0.55-3.5H228c-1.467,2.5-3.267,3.75-5.4,3.75c-2.367,0-3.55-1.583-3.55-4.75
	c0-1.634,0.3-3.2,0.9-4.7C220.55,737.8,221.383,736.634,222.45,735.8z M226.1,735.6c-1.067,0-2.017,0.351-2.85,1.051
	c-0.833,0.699-1.533,1.716-2.1,3.05c-0.533,1.366-0.8,2.75-0.8,4.149c0,2.5,0.85,3.75,2.55,3.75c0.767,0,1.533-0.267,2.3-0.8
	c0.733-0.533,1.4-1.233,2-2.1c0.6-0.9,1.05-1.884,1.35-2.95c0.3-1.066,0.45-1.95,0.45-2.65c0-1.066-0.25-1.916-0.75-2.55
	C227.717,735.917,227,735.6,226.1,735.6z M242.85,737.5c1.4-2,3.167-3,5.3-3c1.1,0,1.917,0.267,2.45,0.8
	c0.566,0.533,0.85,1.316,0.85,2.351c0,0.566-0.117,1.333-0.35,2.3l-1.85,8.55H248l1.9-8.8c0.167-0.767,0.25-1.417,0.25-1.95
	c0-0.7-0.183-1.233-0.55-1.6c-0.367-0.367-0.934-0.551-1.7-0.551c-0.933,0-1.816,0.284-2.65,0.851
	c-0.867,0.566-1.583,1.35-2.15,2.35c-0.567,1.033-1,2.25-1.3,3.65l-1.3,6.05h-1.25l2.95-13.8h1.05l-0.5,2.8H242.85z M180.7,735.6
	c1.066-0.767,2.267-1.149,3.6-1.149c1.5,0,2.684,0.45,3.55,1.35c0.833,0.934,1.25,2.2,1.25,3.8c0,1.667-0.317,3.233-0.95,4.7
	c-0.6,1.434-1.417,2.533-2.45,3.3c-1.067,0.767-2.284,1.15-3.65,1.15c-1.566,0-2.75-0.467-3.55-1.4c-0.8-0.933-1.2-2.25-1.2-3.949
	c0-1.634,0.3-3.15,0.9-4.551C178.833,737.417,179.667,736.333,180.7,735.6z M167.3,734.7l1.35,9.35c0.233,1.4,0.383,2.467,0.45,3.2
	h0.05c0.434-0.967,0.983-2.05,1.65-3.25l5.15-9.3h1.3l-7.6,13.8h-1.45l-2.2-13.8H167.3z M179.35,739.4
	c-0.5,1.233-0.75,2.533-0.75,3.899c0,2.9,1.2,4.351,3.6,4.351c1.066,0,2.017-0.317,2.85-0.95c0.833-0.667,1.5-1.634,2-2.9
	c0.5-1.3,0.75-2.7,0.75-4.2c0-1.3-0.316-2.3-0.95-3c-0.6-0.699-1.483-1.05-2.65-1.05c-1.067,0-2.017,0.334-2.85,1
	C180.517,737.184,179.85,738.134,179.35,739.4z M198.45,735.55c-1.067,0-2.017,0.334-2.85,1c-0.833,0.634-1.5,1.584-2,2.851
	c-0.5,1.233-0.75,2.533-0.75,3.899c0,2.9,1.2,4.351,3.6,4.351c1.066,0,2.017-0.317,2.85-0.95c0.833-0.667,1.5-1.634,2-2.9
	c0.5-1.3,0.75-2.7,0.75-4.2c0-1.3-0.316-2.3-0.95-3C200.5,735.9,199.617,735.55,198.45,735.55z M198.55,734.45
	c1.5,0,2.684,0.45,3.55,1.35c0.833,0.934,1.25,2.2,1.25,3.8c0,1.667-0.317,3.233-0.95,4.7c-0.6,1.434-1.417,2.533-2.45,3.3
	c-1.067,0.767-2.284,1.15-3.65,1.15c-1.566,0-2.75-0.467-3.55-1.4c-0.8-0.933-1.2-2.25-1.2-3.949c0-1.634,0.3-3.15,0.9-4.551
	c0.633-1.433,1.466-2.517,2.5-3.25C196.017,734.833,197.217,734.45,198.55,734.45z M234.4,746.25c0.533,0,0.8,0.316,0.8,0.95
	c0,0.434-0.1,0.8-0.3,1.1c-0.2,0.3-0.483,0.45-0.85,0.45c-0.566,0-0.85-0.316-0.85-0.95c0-0.467,0.1-0.833,0.3-1.1
	C233.733,746.4,234.033,746.25,234.4,746.25z M213.3,748.45c-0.533-0.367-1.466-0.601-2.8-0.7l-2.05-0.2
	c-1.3,0.367-2.25,0.851-2.85,1.45c-0.567,0.566-0.85,1.283-0.85,2.15c0,0.833,0.333,1.466,1,1.899c0.7,0.4,1.65,0.601,2.85,0.601
	c1.733,0,3.066-0.317,4-0.95c0.967-0.634,1.45-1.5,1.45-2.601C214.05,749.4,213.8,748.85,213.3,748.45z M259.2,728.75l-4.25,19.75
	h-1.2l4.25-19.75H259.2z"/>
</svg>
